<?xml version="1.0" encoding="UTF-8" standalone="no"?>
<svg width=".8em" height=".8em" viewBox="0 0 34 33" version="1.1" xmlns="http://www.w3.org/2000/svg" xmlns:xlink="http://www.w3.org/1999/xlink">
    <!-- Generator: Sketch 40.2 (33826) - http://www.bohemiancoding.com/sketch -->
    <title>Fill 1</title>
    <desc>Created with Sketch.</desc>
    <defs></defs>
    <g id="Page-1" stroke="none" stroke-width="1" fill="none" fill-rule="evenodd">
        <g id="GitHub-Mark" transform="translate(-34.000000, -55.000000)" fill="#151513">
            <path d="M50.754,55.773 C41.76,55.773 34.466,63.066 34.466,72.063 C34.466,79.26 39.133,85.365 45.606,87.52 C46.421,87.669 46.718,87.166 46.718,86.734 C46.718,86.348 46.704,85.323 46.696,83.964 C42.165,84.948 41.209,81.78 41.209,81.78 C40.468,79.898 39.4,79.397 39.4,79.397 C37.921,78.387 39.512,78.407 39.512,78.407 C41.147,78.522 42.007,80.086 42.007,80.086 C43.46,82.575 45.82,81.856 46.748,81.439 C46.896,80.387 47.317,79.669 47.782,79.262 C44.165,78.851 40.362,77.453 40.362,71.211 C40.362,69.433 40.997,67.978 42.039,66.84 C41.872,66.428 41.313,64.771 42.199,62.529 C42.199,62.529 43.566,62.091 46.678,64.199 C47.978,63.837 49.371,63.657 50.756,63.65 C52.14,63.657 53.533,63.837 54.834,64.199 C57.944,62.091 59.31,62.529 59.31,62.529 C60.198,64.771 59.639,66.428 59.472,66.84 C60.516,67.978 61.146,69.433 61.146,71.211 C61.146,77.469 57.337,78.846 53.709,79.249 C54.294,79.752 54.815,80.746 54.815,82.266 C54.815,84.443 54.794,86.2 54.794,86.734 C54.794,87.17 55.088,87.677 55.915,87.518 C62.382,85.359 67.045,79.258 67.045,72.063 C67.045,63.066 59.751,55.773 50.754,55.773" id="Fill-1"></path>
        </g>
    </g>
</svg>
